<svg viewBox="0 0 700 800" xmlns="http://www.w3.org/2000/svg" fill="none">
  <defs>
    <radialGradient id="ab-glow" cx="50%" cy="50%" r="50%">
      <stop offset="0%" stop-color="#C9A227" stop-opacity="0.15"/>
      <stop offset="100%" stop-color="#C9A227" stop-opacity="0"/>
    </radialGradient>
  </defs>

  <!-- Central glow -->
  <circle cx="350" cy="400" r="240" fill="url(#ab-glow)"/>

  <!-- ── BOTANICAL WREATH ── -->
  <!-- Left branch - main stem -->
  <path d="M 140 400 C 160 370 185 345 215 325 C 230 315 248 305 268 298"
        stroke="#C9A227" stroke-width="1.8" stroke-linecap="round" opacity="0.5"/>
  <!-- Left leaves -->
  <path d="M 155 380 C 128 362 118 338 128 318 C 142 338 152 362 155 380 Z"
        fill="#C9A227" opacity="0.14" stroke="#C9A227" stroke-width="1.2" opacity="0.35"/>
  <path d="M 172 358 C 145 340 136 316 148 298 C 161 318 170 342 172 358 Z"
        fill="#C9A227" opacity="0.12" stroke="#C9A227" stroke-width="1" opacity="0.3"/>
  <path d="M 190 340 C 164 322 156 298 168 280 C 180 300 190 324 190 340 Z"
        fill="#C9A227" opacity="0.12" stroke="#C9A227" stroke-width="1" opacity="0.28"/>
  <path d="M 210 325 C 185 308 178 285 190 268 C 202 288 212 312 210 325 Z"
        fill="#C9A227" opacity="0.10" stroke="#C9A227" stroke-width="1" opacity="0.25"/>
  <!-- Left leaves — other side -->
  <path d="M 158 374 C 180 356 192 332 183 312 C 171 331 161 355 158 374 Z"
        fill="#C9A227" opacity="0.10" stroke="#C9A227" stroke-width="0.8" opacity="0.22"/>
  <path d="M 176 352 C 198 334 210 310 200 290 C 188 309 178 333 176 352 Z"
        fill="#C9A227" opacity="0.09" stroke="#C9A227" stroke-width="0.8" opacity="0.2"/>
  <path d="M 196 332 C 218 316 228 292 218 274 C 208 292 198 316 196 332 Z"
        fill="#C9A227" opacity="0.09" stroke="#C9A227" stroke-width="0.8" opacity="0.2"/>

  <!-- ── TOP ARCH ── (decorative arch over the monogram) -->
  <!-- Small leaf cluster top left -->
  <path d="M 235 248 C 218 228 218 204 232 192 C 238 210 240 232 235 248 Z"
        fill="#C9A227" opacity="0.12" stroke="#C9A227" stroke-width="1" opacity="0.28"/>
  <path d="M 250 232 C 238 210 240 186 255 176 C 258 195 258 218 250 232 Z"
        fill="#C9A227" opacity="0.12" stroke="#C9A227" stroke-width="1" opacity="0.28"/>
  <!-- Top center small flowers/buds -->
  <circle cx="350" cy="155" r="6" stroke="#C9A227" stroke-width="1.2" opacity="0.45"/>
  <circle cx="350" cy="155" r="2.5" fill="#C9A227" opacity="0.35"/>
  <line x1="350" y1="145" x2="350" y2="138" stroke="#C9A227" stroke-width="1" opacity="0.4"/>
  <circle cx="330" cy="162" r="4" stroke="#C9A227" stroke-width="1" opacity="0.35"/>
  <circle cx="370" cy="162" r="4" stroke="#C9A227" stroke-width="1" opacity="0.35"/>

  <!-- Right branch - mirror -->
  <path d="M 560 400 C 540 370 515 345 485 325 C 470 315 452 305 432 298"
        stroke="#C9A227" stroke-width="1.8" stroke-linecap="round" opacity="0.5"/>
  <path d="M 545 380 C 572 362 582 338 572 318 C 558 338 548 362 545 380 Z"
        fill="#C9A227" opacity="0.14" stroke="#C9A227" stroke-width="1.2" opacity="0.35"/>
  <path d="M 528 358 C 555 340 564 316 552 298 C 539 318 530 342 528 358 Z"
        fill="#C9A227" opacity="0.12" stroke="#C9A227" stroke-width="1" opacity="0.3"/>
  <path d="M 510 340 C 536 322 544 298 532 280 C 520 300 510 324 510 340 Z"
        fill="#C9A227" opacity="0.12" stroke="#C9A227" stroke-width="1" opacity="0.28"/>
  <path d="M 490 325 C 515 308 522 285 510 268 C 498 288 488 312 490 325 Z"
        fill="#C9A227" opacity="0.10" stroke="#C9A227" stroke-width="1" opacity="0.25"/>
  <path d="M 542 374 C 520 356 508 332 517 312 C 529 331 539 355 542 374 Z"
        fill="#C9A227" opacity="0.10" stroke="#C9A227" stroke-width="0.8" opacity="0.22"/>
  <path d="M 524 352 C 502 334 490 310 500 290 C 512 309 522 333 524 352 Z"
        fill="#C9A227" opacity="0.09" stroke="#C9A227" stroke-width="0.8" opacity="0.2"/>
  <path d="M 504 332 C 482 316 472 292 482 274 C 492 292 502 316 504 332 Z"
        fill="#C9A227" opacity="0.09" stroke="#C9A227" stroke-width="0.8" opacity="0.2"/>
  <path d="M 465 248 C 482 228 482 204 468 192 C 462 210 460 232 465 248 Z"
        fill="#C9A227" opacity="0.12" stroke="#C9A227" stroke-width="1" opacity="0.28"/>
  <path d="M 450 232 C 462 210 460 186 445 176 C 442 195 442 218 450 232 Z"
        fill="#C9A227" opacity="0.12" stroke="#C9A227" stroke-width="1" opacity="0.28"/>

  <!-- ── LOWER WREATH ── -->
  <!-- Bottom left -->
  <path d="M 180 450 C 200 470 225 488 252 500"
        stroke="#C9A227" stroke-width="1.5" stroke-linecap="round" opacity="0.4"/>
  <path d="M 192 468 C 170 486 162 510 172 528 C 184 510 192 488 192 468 Z"
        fill="#C9A227" opacity="0.10" stroke="#C9A227" stroke-width="0.8" opacity="0.2"/>
  <path d="M 212 486 C 192 504 186 528 198 544 C 208 526 214 502 212 486 Z"
        fill="#C9A227" opacity="0.10" stroke="#C9A227" stroke-width="0.8" opacity="0.2"/>
  <!-- Bottom right -->
  <path d="M 520 450 C 500 470 475 488 448 500"
        stroke="#C9A227" stroke-width="1.5" stroke-linecap="round" opacity="0.4"/>
  <path d="M 508 468 C 530 486 538 510 528 528 C 516 510 508 488 508 468 Z"
        fill="#C9A227" opacity="0.10" stroke="#C9A227" stroke-width="0.8" opacity="0.2"/>
  <path d="M 488 486 C 508 504 514 528 502 544 C 492 526 486 502 488 486 Z"
        fill="#C9A227" opacity="0.10" stroke="#C9A227" stroke-width="0.8" opacity="0.2"/>

  <!-- ── EB MONOGRAM (center) ── -->
  <!-- Outer ring -->
  <circle cx="350" cy="400" r="85" stroke="#C9A227" stroke-width="1.5" opacity="0.5"/>
  <circle cx="350" cy="400" r="78" stroke="#C9A227" stroke-width="0.6" opacity="0.25"/>
  <!-- E letterform (manual path) -->
  <line x1="314" y1="372" x2="314" y2="428" stroke="#C9A227" stroke-width="2.5" stroke-linecap="round" opacity="0.7"/>
  <line x1="314" y1="372" x2="344" y2="372" stroke="#C9A227" stroke-width="2" stroke-linecap="round" opacity="0.7"/>
  <line x1="314" y1="400" x2="338" y2="400" stroke="#C9A227" stroke-width="2" stroke-linecap="round" opacity="0.7"/>
  <line x1="314" y1="428" x2="344" y2="428" stroke="#C9A227" stroke-width="2" stroke-linecap="round" opacity="0.7"/>
  <!-- B letterform -->
  <line x1="356" y1="372" x2="356" y2="428" stroke="#C9A227" stroke-width="2.5" stroke-linecap="round" opacity="0.7"/>
  <path d="M 356 372 C 376 372 384 380 384 390 C 384 400 376 400 356 400"
        stroke="#C9A227" stroke-width="2" stroke-linecap="round" opacity="0.7"/>
  <path d="M 356 400 C 380 400 388 408 388 418 C 388 428 380 428 356 428"
        stroke="#C9A227" stroke-width="2" stroke-linecap="round" opacity="0.7"/>

  <!-- ── SPARKLES ── -->
  <path d="M 350 290 L 353 282 L 356 290 L 364 293 L 356 296 L 353 304 L 350 296 L 342 293 Z"
        fill="#C9A227" opacity="0.5"/>
  <path d="M 350 510 L 352 505 L 354 510 L 359 512 L 354 514 L 352 519 L 350 514 L 345 512 Z"
        fill="#C9A227" opacity="0.4"/>
  <circle cx="350" cy="490" r="2" fill="#C9A227" opacity="0.3"/>
  <circle cx="264" cy="298" r="3" fill="#C9A227" opacity="0.4"/>
  <circle cx="436" cy="298" r="3" fill="#C9A227" opacity="0.4"/>
</svg>
